ModelForces
version=1
nRows=4
nColumns=158
inDegrees=no

This file contains the forces exerted on a model during a simulation.

A force is a generalized force, meaning that it can be either a force (N) or a torque (Nm).

Units are S.I. units (second, meters, Newtons, ...)
Angles are in degrees.

endheader
time	glut_med1_r	glut_med2_r	glut_med3_r	glut_min1_r	glut_min2_r	glut_min3_r	semimem_r	semiten_r	bifemlh_r	bifemsh_r	sar_r	add_long_r	add_brev_r	add_mag1_r	add_mag2_r	add_mag3_r	tfl_r	pect_r	grac_r	glut_max1_r	glut_max2_r	glut_max3_r	iliacus_r	psoas_r	quad_fem_r	gem_r	peri_r	rect_fem_r	vas_med_r	vas_int_r	vas_lat_r	med_gas_r	lat_gas_r	soleus_r	tib_post_r	flex_dig_r	flex_hal_r	tib_ant_r	per_brev_r	per_long_r	per_tert_r	ext_dig_r	ext_hal_r	glut_med1_l	glut_med2_l	glut_med3_l	glut_min1_l	glut_min2_l	glut_min3_l	semimem_l	semiten_l	bifemlh_l	bifemsh_l	sar_l	add_long_l	add_brev_l	add_mag1_l	add_mag2_l	add_mag3_l	tfl_l	pect_l	grac_l	glut_max1_l	glut_max2_l	glut_max3_l	iliacus_l	psoas_l	quad_fem_l	gem_l	peri_l	rect_fem_l	vas_med_l	vas_int_l	vas_lat_l	med_gas_l	lat_gas_l	soleus_l	tib_post_l	flex_dig_l	flex_hal_l	tib_ant_l	per_brev_l	per_long_l	per_tert_l	ext_dig_l	ext_hal_l	ercspn_r	ercspn_l	intobl_r	intobl_l	extobl_r	extobl_l	femur_lat_meniscii_r.femur_lat_r.force.X	femur_lat_meniscii_r.femur_lat_r.force.Y	femur_lat_meniscii_r.femur_lat_r.force.Z	femur_lat_meniscii_r.femur_lat_r.torque.X	femur_lat_meniscii_r.femur_lat_r.torque.Y	femur_lat_meniscii_r.femur_lat_r.torque.Z	femur_lat_meniscii_r.meniscus_lat_r.force.X	femur_lat_meniscii_r.meniscus_lat_r.force.Y	femur_lat_meniscii_r.meniscus_lat_r.force.Z	femur_lat_meniscii_r.meniscus_lat_r.torque.X	femur_lat_meniscii_r.meniscus_lat_r.torque.Y	femur_lat_meniscii_r.meniscus_lat_r.torque.Z	femur_med_meniscii_r.femur_med_r.force.X	femur_med_meniscii_r.femur_med_r.force.Y	femur_med_meniscii_r.femur_med_r.force.Z	femur_med_meniscii_r.femur_med_r.torque.X	femur_med_meniscii_r.femur_med_r.torque.Y	femur_med_meniscii_r.femur_med_r.torque.Z	femur_med_meniscii_r.meniscus_med_r.force.X	femur_med_meniscii_r.meniscus_med_r.force.Y	femur_med_meniscii_r.meniscus_med_r.force.Z	femur_med_meniscii_r.meniscus_med_r.torque.X	femur_med_meniscii_r.meniscus_med_r.torque.Y	femur_med_meniscii_r.meniscus_med_r.torque.Z	femur_med_tibia_r.tibia_upper_r.force.X	femur_med_tibia_r.tibia_upper_r.force.Y	femur_med_tibia_r.tibia_upper_r.force.Z	femur_med_tibia_r.tibia_upper_r.torque.X	femur_med_tibia_r.tibia_upper_r.torque.Y	femur_med_tibia_r.tibia_upper_r.torque.Z	femur_med_tibia_r.femur_med_r.force.X	femur_med_tibia_r.femur_med_r.force.Y	femur_med_tibia_r.femur_med_r.force.Z	femur_med_tibia_r.femur_med_r.torque.X	femur_med_tibia_r.femur_med_r.torque.Y	femur_med_tibia_r.femur_med_r.torque.Z	femur_lat_tibia_r.tibia_upper_r.force.X	femur_lat_tibia_r.tibia_upper_r.force.Y	femur_lat_tibia_r.tibia_upper_r.force.Z	femur_lat_tibia_r.tibia_upper_r.torque.X	femur_lat_tibia_r.tibia_upper_r.torque.Y	femur_lat_tibia_r.tibia_upper_r.torque.Z	femur_lat_tibia_r.femur_lat_r.force.X	femur_lat_tibia_r.femur_lat_r.force.Y	femur_lat_tibia_r.femur_lat_r.force.Z	femur_lat_tibia_r.femur_lat_r.torque.X	femur_lat_tibia_r.femur_lat_r.torque.Y	femur_lat_tibia_r.femur_lat_r.torque.Z	aACL_R	pACL_R	aPCL_R	pPCL_R	aMCL_R	mMCL_R	pMCL_R	aLCL_R	mLCL_R	pLCL_R	aPCL_L	pPCL_L	aMCL_L	aLCL_L	ground_prescribedForce_-20_fx	ground_prescribedForce_-20_fy	ground_prescribedForce_-20_fz
      0.49798925	      7.59731609	      5.69976480	      6.10157555	      2.67421771	      3.19547602	      3.21358055	      6.15446619	      4.12192866	      6.90831794	      7.00275494	      1.56102223	      5.64737157	      0.68456029	      2.93631709	      2.46869319	      4.01440976	      3.74408642	      2.25166241	      1.55661132	      3.67800278	      5.58942995	      4.17282760	     22.70927066	     13.03619455	      3.64797284	      2.86428396	      4.12996431	     11.87571356	      9.14196532	      9.46052505	     12.38754227	      2.61750996	      1.56963322	      9.30973049	     12.25365654	      2.84446294	      2.31684298	     13.86121115	      3.56968022	      6.99170168	     10.16159054	      7.49080393	      2.21258034	      7.59731609	      5.69976480	      6.10157555	      2.67421771	      3.19547602	      3.21358055	      8.81720362	      4.10968326	      7.74274719	      7.25842446	      1.52843784	      5.64737157	      4.20845642	      2.93631709	      2.46869319	      4.01440976	      4.11368813	      2.25166241	      1.56777482	      3.67800278	      5.58942995	      4.17282760	     22.70927066	     13.03619455	      3.64797284	      2.86428396	      4.12996431	     10.74867534	      6.63316336	      7.60966883	      8.18218991	     14.13480336	      6.56326114	     31.38962006	     42.47774753	      2.76534581	      2.94210613	      8.51311931	      4.37083379	     12.53627901	      2.01664206	      5.32198270	      1.69063250	     25.15064102	     25.15064102	      9.05662664	      9.05662664	     26.85547385	     26.85547385	     51.11851909	     79.70950546	     18.83702434	     -9.73947000	      1.24674576	     21.17820680	    -51.11851909	    -79.70950546	    -18.83702434	      2.64937690	     -1.46980658	     -0.99374879	     33.67968038	     40.99702509	     14.34612532	     -4.98364895	     -0.82915393	     13.99824295	    -33.67968038	    -40.99702509	    -14.34612532	     -0.44929230	      0.66811490	     -0.78339629	      0.00000000	      0.00000000	      0.00000000	      0.00000000	      0.00000000	      0.00000000	      0.00000000	      0.00000000	      0.00000000	      0.00000000	      0.00000000	      0.00000000	      0.00000000	      0.00000000	      0.00000000	      0.00000000	      0.00000000	      0.00000000	      0.00000000	      0.00000000	      0.00000000	      0.00000000	      0.00000000	      0.00000000	     48.56429259	     35.56991763	      0.00000000	      0.00000000	      0.00000000	      1.02781568	      4.87225410	      0.35622263	      0.00000000	      0.00000000	      0.00000000	      0.00000000	      0.00000001	      0.00000000	    103.36618800	    -37.62220000	      0.00000000
      0.49918928	      7.59652151	      5.69921746	      6.10098235	      2.67397180	      3.19521000	      3.21324514	      6.14936470	      4.11868319	      6.90950846	      7.00156266	      1.54349858	      5.64682294	      8.35498877	      2.93603718	      2.46845225	      4.01397575	      3.74521613	      2.25145405	      1.55509678	      3.67764987	      5.58889201	      4.17241863	     22.70827817	     13.03507835	      3.64763009	      2.86412351	      4.12932695	     11.87174376	      9.12069279	      9.44537273	     12.36919070	      2.61968341	      1.57533164	      9.33299260	     12.23373873	      2.85430174	      2.30370106	     13.86570950	      3.58174301	      7.01655538	     10.16891775	      7.48326701	      2.21897168	      7.59652151	      5.69921746	      6.10098235	      2.67397180	      3.19521000	      3.21324514	      8.81604643	      4.10925756	      7.74178429	      7.25774207	      1.52829793	      5.64682294	      4.18045209	      2.93603718	      2.46845225	      4.01397575	      4.11341971	      2.25145405	      1.56762882	      3.67764987	      5.58889201	      4.17241863	     22.70827817	     13.03507835	      3.64763009	      2.86412351	      4.12932695	     10.74736480	      6.63251183	      7.60890695	      8.18137486	     14.13197734	      6.56194688	     31.38478725	     42.47585409	      2.76432699	      2.94138991	      8.51213311	      4.37024301	     12.53485869	      2.01646891	      5.32158994	      1.69052088	     25.14832300	     25.14832300	      9.05571764	      9.05571764	     26.85465734	     26.85465734	     51.10780540	     79.80861802	     18.82152095	     -9.73545048	      1.24627434	     21.17320380	    -51.10780540	    -79.80861802	    -18.82152095	      2.65119329	     -1.46906194	     -0.99198630	     33.66132246	     41.05248939	     14.36659367	     -4.99076000	     -0.82891846	     13.99067756	    -33.66132246	    -41.05248939	    -14.36659367	     -0.45008586	      0.66785317	     -0.78238323	      0.00000000	      0.00000000	      0.00000000	      0.00000000	      0.00000000	      0.00000000	      0.00000000	      0.00000000	      0.00000000	      0.00000000	      0.00000000	      0.00000000	      0.00000000	      0.00000000	      0.00000000	      0.00000000	      0.00000000	      0.00000000	      0.00000000	      0.00000000	      0.00000000	      0.00000000	      0.00000000	      0.00000000	     48.56219570	     35.55911533	      0.00000000	      0.00000000	      0.00000000	      1.02562301	      4.87408097	      0.43911358	      0.00000000	      0.00000000	      0.00000000	      0.00000000	      0.00000001	      0.00000000	    103.36618800	    -37.62220000	      0.00000000
      0.50405432	      7.59342322	      5.69708318	      6.09866928	      2.67301291	      3.19417273	      3.21193726	      6.12999116	      4.10712397	      6.91261214	      7.01118250	      1.52187645	      5.64468363	      4.71033202	      2.93494573	      2.46751276	      4.01228346	      3.75220497	      2.25064154	      1.55169377	      3.67627377	      5.58679438	      4.17082392	     22.70440813	     13.03072603	      3.64629359	      2.86349787	      4.12684065	     11.85541133	      9.04716146	      9.39606899	     12.30458358	      2.63407394	      1.60237364	      9.43462328	     12.17257399	      2.88778309	      2.24892470	     13.88244799	      3.62434021	      7.11195037	     10.19555562	      7.48887018	      2.24695221	      7.59342322	      5.69708318	      6.09866928	      2.67301291	      3.19417273	      3.21193726	      8.81153394	      4.10759760	      7.73802954	      7.25508119	      1.52775238	      5.64468363	      4.06144912	      2.93494573	      2.46751276	      4.01228346	      4.11237307	      2.25064154	      1.56705952	      3.67627377	      5.58679438	      4.17082392	     22.70440813	     13.03072603	      3.64629359	      2.86349787	      4.12684065	     10.74225454	      6.62997134	      7.60593617	      8.17819677	     14.12093786	      6.55681282	     31.36593533	     42.46846947	      2.76024450	      2.93853883	      8.50828760	      4.36793914	     12.52931573	      2.01579376	      5.32012572	      1.69010571	     25.13928421	     25.13928421	      9.05217316	      9.05217316	     26.85147350	     26.85147350	     50.97678744	     79.74495837	     18.67782680	     -9.67329313	      1.24179020	     21.11834369	    -50.97678744	    -79.74495837	    -18.67782680	      2.64302340	     -1.46276712	     -0.98739565	     33.79284312	     41.67090487	     14.42979070	     -4.99955319	     -0.83382501	     14.04922042	    -33.79284312	    -41.67090487	    -14.42979070	     -0.46504352	      0.67243557	     -0.78572218	      0.00000000	      0.00000000	      0.00000000	      0.00000000	      0.00000000	      0.00000000	      0.00000000	      0.00000000	      0.00000000	      0.00000000	      0.00000000	      0.00000000	      0.00000000	      0.00000000	      0.00000000	      0.00000000	      0.00000000	      0.00000000	      0.00000000	      0.00000000	      0.00000000	      0.00000000	      0.00000000	      0.00000000	     48.66431530	     35.64243565	      0.00000000	      0.00000000	      0.00000000	      1.07338351	      4.94032664	      0.80494596	      0.00000000	      0.00000000	      0.00000000	      0.00000000	      0.00000001	      0.00000000	    103.36618800	    -37.62220000	      0.00000000
      0.50622224	      7.59210393	      5.69617437	      6.09768433	      2.67260459	      3.19373104	      3.21138036	      6.12442301	      4.10394074	      6.91495728	      7.02188854	      1.52677057	      5.64377267	      4.22986000	      2.93448097	      2.46711271	      4.01156286	      3.75659062	      2.25029556	      1.55135432	      3.67568780	      5.58590117	      4.17014487	     22.70276021	     13.02887279	      3.64572448	      2.86323146	      4.12578145	     11.85114751	      9.02747799	      9.38653247	     12.28944129	      2.64273801	      1.61643129	      9.48337216	     12.15565530	      2.89923736	      2.22395858	     13.88875959	      3.64034121	      7.15157692	     10.20610173	      7.51104043	      2.25990212	      7.59210393	      5.69617437	      6.09768433	      2.67260459	      3.19373104	      3.21138036	      8.80961233	      4.10689078	      7.73643067	      7.25394813	      1.52752006	      5.64377267	      4.23121958	      2.93448097	      2.46711271	      4.01156286	      4.11192741	      2.25029556	      1.56681710	      3.67568780	      5.58590117	      4.17014487	     22.70276021	     13.02887279	      3.64572448	      2.86323146	      4.12578145	     10.74007849	      6.62888956	      7.60467119	      8.17684351	     14.11622722	      6.55462206	     31.35790436	     42.46532423	      2.75844916	      2.93729466	      8.50665014	      4.36695800	     12.52695315	      2.01550627	      5.31953684	      1.68993920	     25.13543524	     25.13543524	      9.05066387	      9.05066387	     26.85011777	     26.85011777	     50.90259091	     79.67044104	     18.60695960	     -9.64156904	      1.23953471	     21.08739022	    -50.90259091	    -79.67044104	    -18.60695960	      2.63796495	     -1.45965720	     -0.98529629	     33.74667239	     41.62624480	     14.41118512	     -4.99247444	     -0.83341288	     14.03053144	    -33.74667239	    -41.62624480	    -14.41118512	     -0.46527541	      0.67237773	     -0.78497367	      0.00000000	      0.00000000	      0.00000000	      0.00000000	      0.00000000	      0.00000000	      0.00000000	      0.00000000	      0.00000000	      0.00000000	      0.00000000	      0.00000000	      0.00000000	      0.00000000	      0.00000000	      0.00000000	      0.00000000	      0.00000000	      0.00000000	      0.00000000	      0.00000000	      0.00000000	      0.00000000	      0.00000000	     48.70144233	     35.67308474	      0.00000000	      0.00000000	      0.00000000	      1.03877950	      4.91747945	      0.88054976	      0.00000000	      0.00000000	      0.00000000	      0.00000000	      0.00000001	      0.00000000	    103.36618800	    -37.62220000	      0.00000000
